<mxfile host="65bd71144e">
    <diagram id="Ra2m50L_0_4L9DMqmq4s" name="Page-1">
        <mxGraphModel dx="1288" dy="1082" grid="1" gridSize="10" guides="1" tooltips="1" connect="1" arrows="1" fold="1" page="1" pageScale="1" pageWidth="827" pageHeight="1169" math="0" shadow="0">
            <root>
                <mxCell id="0"/>
                <mxCell id="1" parent="0"/>
                <mxCell id="2" value="&lt;b&gt;&lt;font style=&quot;font-size: 30px;&quot;&gt;Data&lt;/font&gt;&lt;/b&gt;" style="whiteSpace=wrap;html=1;fillColor=#f8cecc;strokeColor=#b85450;" parent="1" vertex="1">
                    <mxGeometry x="270" y="240" width="220" height="70" as="geometry"/>
                </mxCell>
                <mxCell id="3" value="&lt;font size=&quot;1&quot;&gt;&lt;b style=&quot;font-size: 30px;&quot;&gt;Data&lt;/b&gt;&lt;/font&gt;" style="whiteSpace=wrap;html=1;fillColor=#f8cecc;strokeColor=#b85450;" parent="1" vertex="1">
                    <mxGeometry x="270" y="350" width="220" height="70" as="geometry"/>
                </mxCell>
                <mxCell id="5" value="&lt;font size=&quot;1&quot;&gt;&lt;b style=&quot;font-size: 30px;&quot;&gt;Data&lt;/b&gt;&lt;/font&gt;" style="whiteSpace=wrap;html=1;fillColor=#f8cecc;strokeColor=#b85450;" parent="1" vertex="1">
                    <mxGeometry x="270" y="460" width="220" height="70" as="geometry"/>
                </mxCell>
                <mxCell id="6" value="L4" style="whiteSpace=wrap;html=1;fontSize=30;fontStyle=1" parent="1" vertex="1">
                    <mxGeometry x="490" y="350" width="120" height="70" as="geometry"/>
                </mxCell>
                <mxCell id="7" value="L4" style="whiteSpace=wrap;html=1;fontSize=30;fontStyle=1" parent="1" vertex="1">
                    <mxGeometry x="490" y="460" width="120" height="70" as="geometry"/>
                </mxCell>
                <mxCell id="8" value="L3" style="whiteSpace=wrap;html=1;fontSize=30;fontStyle=1" parent="1" vertex="1">
                    <mxGeometry x="610" y="460" width="120" height="70" as="geometry"/>
                </mxCell>
                <mxCell id="9" value="&lt;font size=&quot;1&quot;&gt;&lt;b style=&quot;font-size: 30px;&quot;&gt;Data&lt;/b&gt;&lt;/font&gt;" style="whiteSpace=wrap;html=1;fillColor=#f8cecc;strokeColor=#b85450;" parent="1" vertex="1">
                    <mxGeometry x="270" y="585" width="220" height="70" as="geometry"/>
                </mxCell>
                <mxCell id="10" value="L4" style="whiteSpace=wrap;html=1;fontSize=30;fontStyle=1" parent="1" vertex="1">
                    <mxGeometry x="490" y="585" width="120" height="70" as="geometry"/>
                </mxCell>
                <mxCell id="11" value="L3" style="whiteSpace=wrap;html=1;fontSize=30;fontStyle=1" parent="1" vertex="1">
                    <mxGeometry x="610" y="585" width="120" height="70" as="geometry"/>
                </mxCell>
                <mxCell id="12" value="L2" style="whiteSpace=wrap;html=1;fontSize=30;fontStyle=1" parent="1" vertex="1">
                    <mxGeometry x="730" y="585" width="120" height="70" as="geometry"/>
                </mxCell>
                <mxCell id="13" value="Protocol Data Unit" style="text;strokeColor=none;align=center;fillColor=none;html=1;verticalAlign=middle;whiteSpace=wrap;rounded=0;fontSize=30;fontStyle=1" parent="1" vertex="1">
                    <mxGeometry x="414" y="120" width="330" height="30" as="geometry"/>
                </mxCell>
                <mxCell id="14" value="Segments" style="text;strokeColor=none;align=center;fillColor=none;html=1;verticalAlign=middle;whiteSpace=wrap;rounded=0;fontSize=30;fontStyle=1" parent="1" vertex="1">
                    <mxGeometry x="100" y="380" width="160" height="30" as="geometry"/>
                </mxCell>
                <mxCell id="16" value="Frames" style="text;strokeColor=none;align=center;fillColor=none;html=1;verticalAlign=middle;whiteSpace=wrap;rounded=0;fontSize=30;fontStyle=1" parent="1" vertex="1">
                    <mxGeometry x="140" y="615" width="120" height="30" as="geometry"/>
                </mxCell>
                <mxCell id="17" value="Packets" style="text;strokeColor=none;align=center;fillColor=none;html=1;verticalAlign=middle;whiteSpace=wrap;rounded=0;fontSize=30;fontStyle=1" parent="1" vertex="1">
                    <mxGeometry x="130" y="490" width="120" height="30" as="geometry"/>
                </mxCell>
            </root>
        </mxGraphModel>
    </diagram>
    <diagram id="rCHh-zzDOQvZzf_WztIb" name="Page-2">
        <mxGraphModel dx="991" dy="832" grid="1" gridSize="10" guides="1" tooltips="1" connect="1" arrows="1" fold="1" page="1" pageScale="1" pageWidth="827" pageHeight="1169" math="0" shadow="0">
            <root>
                <mxCell id="0"/>
                <mxCell id="1" parent="0"/>
                <mxCell id="aLA4iVFS_eTFr-cPJuhL-20" style="edgeStyle=orthogonalEdgeStyle;html=1;fontSize=30;" parent="1" source="aLA4iVFS_eTFr-cPJuhL-1" target="aLA4iVFS_eTFr-cPJuhL-19" edge="1">
                    <mxGeometry relative="1" as="geometry"/>
                </mxCell>
                <mxCell id="aLA4iVFS_eTFr-cPJuhL-1" value="Mainframes" style="whiteSpace=wrap;html=1;fontSize=30;fontStyle=1" parent="1" vertex="1">
                    <mxGeometry x="253" y="240" width="210" height="130" as="geometry"/>
                </mxCell>
                <mxCell id="aLA4iVFS_eTFr-cPJuhL-17" style="edgeStyle=orthogonalEdgeStyle;html=1;fontSize=30;" parent="1" source="aLA4iVFS_eTFr-cPJuhL-3" target="aLA4iVFS_eTFr-cPJuhL-1" edge="1">
                    <mxGeometry relative="1" as="geometry"/>
                </mxCell>
                <mxCell id="aLA4iVFS_eTFr-cPJuhL-3" value="client 1" style="whiteSpace=wrap;html=1;fontSize=20;fontStyle=1" parent="1" vertex="1">
                    <mxGeometry x="73" y="240" width="80.77" height="50" as="geometry"/>
                </mxCell>
                <mxCell id="aLA4iVFS_eTFr-cPJuhL-18" style="edgeStyle=orthogonalEdgeStyle;html=1;fontSize=30;" parent="1" source="aLA4iVFS_eTFr-cPJuhL-5" target="aLA4iVFS_eTFr-cPJuhL-1" edge="1">
                    <mxGeometry relative="1" as="geometry"/>
                </mxCell>
                <mxCell id="aLA4iVFS_eTFr-cPJuhL-5" value="client 2" style="whiteSpace=wrap;html=1;fontSize=20;fontStyle=1" parent="1" vertex="1">
                    <mxGeometry x="73" y="320" width="80.77" height="50" as="geometry"/>
                </mxCell>
                <mxCell id="aLA4iVFS_eTFr-cPJuhL-10" style="edgeStyle=none;html=1;fontSize=30;" parent="1" source="aLA4iVFS_eTFr-cPJuhL-6" edge="1">
                    <mxGeometry relative="1" as="geometry">
                        <mxPoint x="208.39" y="980" as="targetPoint"/>
                    </mxGeometry>
                </mxCell>
                <mxCell id="aLA4iVFS_eTFr-cPJuhL-6" value="" style="whiteSpace=wrap;html=1;fontSize=30;" parent="1" vertex="1">
                    <mxGeometry x="163.39" y="840" width="90" height="80" as="geometry"/>
                </mxCell>
                <mxCell id="aLA4iVFS_eTFr-cPJuhL-11" style="edgeStyle=none;html=1;fontSize=30;" parent="1" source="aLA4iVFS_eTFr-cPJuhL-7" edge="1">
                    <mxGeometry relative="1" as="geometry">
                        <mxPoint x="338.39" y="980" as="targetPoint"/>
                    </mxGeometry>
                </mxCell>
                <mxCell id="aLA4iVFS_eTFr-cPJuhL-7" value="" style="whiteSpace=wrap;html=1;fontSize=30;" parent="1" vertex="1">
                    <mxGeometry x="293.39" y="840" width="90" height="80" as="geometry"/>
                </mxCell>
                <mxCell id="aLA4iVFS_eTFr-cPJuhL-12" style="edgeStyle=none;html=1;fontSize=30;" parent="1" source="aLA4iVFS_eTFr-cPJuhL-8" edge="1">
                    <mxGeometry relative="1" as="geometry">
                        <mxPoint x="472" y="980" as="targetPoint"/>
                    </mxGeometry>
                </mxCell>
                <mxCell id="aLA4iVFS_eTFr-cPJuhL-8" value="" style="whiteSpace=wrap;html=1;fontSize=30;" parent="1" vertex="1">
                    <mxGeometry x="427.39" y="840" width="90" height="80" as="geometry"/>
                </mxCell>
                <mxCell id="aLA4iVFS_eTFr-cPJuhL-13" style="edgeStyle=none;html=1;fontSize=30;" parent="1" source="aLA4iVFS_eTFr-cPJuhL-9" edge="1">
                    <mxGeometry relative="1" as="geometry">
                        <mxPoint x="608.39" y="980" as="targetPoint"/>
                    </mxGeometry>
                </mxCell>
                <mxCell id="aLA4iVFS_eTFr-cPJuhL-9" value="" style="whiteSpace=wrap;html=1;fontSize=30;" parent="1" vertex="1">
                    <mxGeometry x="563.39" y="840" width="90" height="80" as="geometry"/>
                </mxCell>
                <mxCell id="aLA4iVFS_eTFr-cPJuhL-15" style="edgeStyle=none;html=1;fontSize=30;" parent="1" target="aLA4iVFS_eTFr-cPJuhL-6" edge="1">
                    <mxGeometry relative="1" as="geometry">
                        <mxPoint x="166.0823076923076" y="830" as="sourcePoint"/>
                    </mxGeometry>
                </mxCell>
                <mxCell id="aLA4iVFS_eTFr-cPJuhL-14" value="myfile.xls" style="text;strokeColor=none;align=center;fillColor=none;html=1;verticalAlign=middle;whiteSpace=wrap;rounded=0;fontSize=30;fontStyle=1" parent="1" vertex="1">
                    <mxGeometry x="113.39" y="750" width="60" height="30" as="geometry"/>
                </mxCell>
                <mxCell id="aLA4iVFS_eTFr-cPJuhL-16" value="myfile.xls" style="text;strokeColor=none;align=center;fillColor=none;html=1;verticalAlign=middle;whiteSpace=wrap;rounded=0;fontSize=30;fontStyle=1" parent="1" vertex="1">
                    <mxGeometry x="623.39" y="750" width="60" height="30" as="geometry"/>
                </mxCell>
                <mxCell id="aLA4iVFS_eTFr-cPJuhL-19" value="" style="whiteSpace=wrap;html=1;fontSize=30;fontStyle=1" parent="1" vertex="1">
                    <mxGeometry x="673" y="230" width="80.77" height="150" as="geometry"/>
                </mxCell>
                <mxCell id="aLA4iVFS_eTFr-cPJuhL-21" value="&lt;font style=&quot;font-size: 20px;&quot;&gt;Database&lt;/font&gt;" style="text;strokeColor=none;align=center;fillColor=none;html=1;verticalAlign=middle;whiteSpace=wrap;rounded=0;fontSize=30;fontStyle=1" parent="1" vertex="1">
                    <mxGeometry x="683.39" y="190" width="60" height="30" as="geometry"/>
                </mxCell>
                <mxCell id="aLA4iVFS_eTFr-cPJuhL-22" value="&lt;font style=&quot;font-size: 50px;&quot;&gt;Centralized Computation&lt;/font&gt;" style="text;strokeColor=none;align=center;fillColor=none;html=1;verticalAlign=middle;whiteSpace=wrap;rounded=0;fontSize=50;fontStyle=1" parent="1" vertex="1">
                    <mxGeometry x="291" y="120" width="245" height="30" as="geometry"/>
                </mxCell>
                <mxCell id="aLA4iVFS_eTFr-cPJuhL-23" value="&lt;font style=&quot;font-size: 50px;&quot;&gt;De-centralized Computation&lt;/font&gt;" style="text;strokeColor=none;align=center;fillColor=none;html=1;verticalAlign=middle;whiteSpace=wrap;rounded=0;fontSize=30;fontStyle=1" parent="1" vertex="1">
                    <mxGeometry x="198" y="630" width="430" height="30" as="geometry"/>
                </mxCell>
                <mxCell id="lx1FHtpdXQh-Rwv0teBw-1" value="&lt;font style=&quot;font-size: 20px;&quot;&gt;SQL&lt;/font&gt;" style="text;strokeColor=none;align=center;fillColor=none;html=1;verticalAlign=middle;whiteSpace=wrap;rounded=0;fontSize=30;fontStyle=1" parent="1" vertex="1">
                    <mxGeometry x="543" y="270" width="60" height="30" as="geometry"/>
                </mxCell>
                <mxCell id="lx1FHtpdXQh-Rwv0teBw-2" value="" style="edgeStyle=none;orthogonalLoop=1;jettySize=auto;html=1;fontSize=50;endArrow=none;endFill=0;" parent="1" edge="1">
                    <mxGeometry width="80" relative="1" as="geometry">
                        <mxPoint x="180" y="980" as="sourcePoint"/>
                        <mxPoint x="650" y="980" as="targetPoint"/>
                        <Array as="points"/>
                    </mxGeometry>
                </mxCell>
                <mxCell id="lx1FHtpdXQh-Rwv0teBw-3" value="Database" style="whiteSpace=wrap;html=1;fontSize=30;fontStyle=1" parent="1" vertex="1">
                    <mxGeometry x="273" y="1020" width="281" height="80" as="geometry"/>
                </mxCell>
            </root>
        </mxGraphModel>
    </diagram>
    <diagram id="YZwtqXDs_XqdBo-NBGi2" name="Page-3">
        <mxGraphModel dx="1747" dy="773" grid="1" gridSize="10" guides="1" tooltips="1" connect="1" arrows="1" fold="1" page="1" pageScale="1" pageWidth="827" pageHeight="1169" math="0" shadow="0">
            <root>
                <mxCell id="0"/>
                <mxCell id="1" parent="0"/>
                <mxCell id="tQxjDxkxA76HWwi6js65-19" style="edgeStyle=elbowEdgeStyle;html=1;startArrow=none;endArrow=none;fontSize=20;" parent="1" source="tQxjDxkxA76HWwi6js65-6" edge="1">
                    <mxGeometry relative="1" as="geometry">
                        <mxPoint x="460" y="160" as="targetPoint"/>
                    </mxGeometry>
                </mxCell>
                <mxCell id="tQxjDxkxA76HWwi6js65-6" value="Division" style="whiteSpace=wrap;html=1;align=center;verticalAlign=middle;treeFolding=1;treeMoving=1;newEdgeStyle={&quot;edgeStyle&quot;:&quot;elbowEdgeStyle&quot;,&quot;startArrow&quot;:&quot;none&quot;,&quot;endArrow&quot;:&quot;none&quot;};fontSize=20;" parent="1" vertex="1">
                    <mxGeometry x="410" y="240" width="100" height="60" as="geometry"/>
                </mxCell>
                <mxCell id="tQxjDxkxA76HWwi6js65-17" style="edgeStyle=elbowEdgeStyle;html=1;startArrow=none;endArrow=none;fontSize=20;" parent="1" source="tQxjDxkxA76HWwi6js65-10" edge="1">
                    <mxGeometry relative="1" as="geometry">
                        <mxPoint x="20" y="170" as="targetPoint"/>
                    </mxGeometry>
                </mxCell>
                <mxCell id="tQxjDxkxA76HWwi6js65-10" value="Client" style="whiteSpace=wrap;html=1;align=center;verticalAlign=middle;treeFolding=1;treeMoving=1;newEdgeStyle={&quot;edgeStyle&quot;:&quot;elbowEdgeStyle&quot;,&quot;startArrow&quot;:&quot;none&quot;,&quot;endArrow&quot;:&quot;none&quot;};fontSize=20;" parent="1" vertex="1">
                    <mxGeometry x="-10" y="240" width="100" height="60" as="geometry"/>
                </mxCell>
                <mxCell id="tQxjDxkxA76HWwi6js65-12" value="Division" style="whiteSpace=wrap;html=1;align=center;verticalAlign=middle;treeFolding=1;treeMoving=1;newEdgeStyle={&quot;edgeStyle&quot;:&quot;elbowEdgeStyle&quot;,&quot;startArrow&quot;:&quot;none&quot;,&quot;endArrow&quot;:&quot;none&quot;};fontSize=20;" parent="1" vertex="1">
                    <mxGeometry x="550" y="230" width="100" height="60" as="geometry"/>
                </mxCell>
                <mxCell id="tQxjDxkxA76HWwi6js65-13" value="" style="edgeStyle=elbowEdgeStyle;elbow=vertical;sourcePerimeterSpacing=0;targetPerimeterSpacing=0;startArrow=none;endArrow=none;rounded=0;curved=0;fontSize=20;" parent="1" target="tQxjDxkxA76HWwi6js65-12" edge="1">
                    <mxGeometry relative="1" as="geometry">
                        <mxPoint x="520" y="170" as="sourcePoint"/>
                    </mxGeometry>
                </mxCell>
                <mxCell id="tQxjDxkxA76HWwi6js65-22" style="edgeStyle=elbowEdgeStyle;html=1;startArrow=none;endArrow=none;fontSize=20;" parent="1" source="tQxjDxkxA76HWwi6js65-14" edge="1">
                    <mxGeometry relative="1" as="geometry">
                        <mxPoint x="230" y="170" as="targetPoint"/>
                    </mxGeometry>
                </mxCell>
                <UserObject label="Server" treeRoot="1" id="tQxjDxkxA76HWwi6js65-14">
                    <mxCell style="whiteSpace=wrap;html=1;align=center;treeFolding=1;treeMoving=1;newEdgeStyle={&quot;edgeStyle&quot;:&quot;elbowEdgeStyle&quot;,&quot;startArrow&quot;:&quot;none&quot;,&quot;endArrow&quot;:&quot;none&quot;};fontSize=20;" parent="1" vertex="1">
                        <mxGeometry x="170" y="70" width="120" height="60" as="geometry"/>
                    </mxCell>
                </UserObject>
                <mxCell id="tQxjDxkxA76HWwi6js65-18" style="edgeStyle=elbowEdgeStyle;html=1;startArrow=none;endArrow=none;fontSize=20;" parent="1" source="tQxjDxkxA76HWwi6js65-8" edge="1">
                    <mxGeometry relative="1" as="geometry">
                        <mxPoint x="140" y="170" as="targetPoint"/>
                    </mxGeometry>
                </mxCell>
                <mxCell id="tQxjDxkxA76HWwi6js65-8" value="client" style="whiteSpace=wrap;html=1;align=center;verticalAlign=middle;treeFolding=1;treeMoving=1;newEdgeStyle={&quot;edgeStyle&quot;:&quot;elbowEdgeStyle&quot;,&quot;startArrow&quot;:&quot;none&quot;,&quot;endArrow&quot;:&quot;none&quot;};fontSize=20;" parent="1" vertex="1">
                    <mxGeometry x="130" y="240" width="100" height="60" as="geometry"/>
                </mxCell>
                <mxCell id="tQxjDxkxA76HWwi6js65-16" value="" style="edgeStyle=none;orthogonalLoop=1;jettySize=auto;html=1;fontSize=20;verticalAlign=bottom;endArrow=none;endFill=0;" parent="1" edge="1">
                    <mxGeometry width="80" relative="1" as="geometry">
                        <mxPoint x="10" y="170" as="sourcePoint"/>
                        <mxPoint x="570" y="170" as="targetPoint"/>
                        <Array as="points">
                            <mxPoint x="190" y="170"/>
                        </Array>
                    </mxGeometry>
                </mxCell>
                <mxCell id="tQxjDxkxA76HWwi6js65-20" value="SQL" style="text;strokeColor=none;align=center;fillColor=none;html=1;verticalAlign=middle;whiteSpace=wrap;rounded=0;fontSize=20;" parent="1" vertex="1">
                    <mxGeometry x="-10" y="80" width="60" height="30" as="geometry"/>
                </mxCell>
                <mxCell id="tQxjDxkxA76HWwi6js65-21" value="Backend" style="text;strokeColor=none;align=center;fillColor=none;html=1;verticalAlign=middle;whiteSpace=wrap;rounded=0;fontSize=20;" parent="1" vertex="1">
                    <mxGeometry y="110" width="60" height="30" as="geometry"/>
                </mxCell>
                <mxCell id="tQxjDxkxA76HWwi6js65-23" value="Office 365" style="text;strokeColor=none;align=center;fillColor=none;html=1;verticalAlign=middle;whiteSpace=wrap;rounded=0;fontSize=20;fontStyle=1" parent="1" vertex="1">
                    <mxGeometry x="240" y="650" width="140" height="30" as="geometry"/>
                </mxCell>
                <mxCell id="tQxjDxkxA76HWwi6js65-26" style="edgeStyle=orthogonalEdgeStyle;html=1;startArrow=none;endArrow=none;segment=10;curved=1;sourcePerimeterSpacing=0;targetPerimeterSpacing=0;fontSize=20;" parent="1" source="tQxjDxkxA76HWwi6js65-24" target="tQxjDxkxA76HWwi6js65-25" edge="1">
                    <mxGeometry relative="1" as="geometry">
                        <Array as="points">
                            <mxPoint x="330" y="685"/>
                            <mxPoint x="330" y="685"/>
                        </Array>
                    </mxGeometry>
                </mxCell>
                <mxCell id="tQxjDxkxA76HWwi6js65-24" value="Browser" style="ellipse;whiteSpace=wrap;html=1;align=center;newEdgeStyle={&quot;edgeStyle&quot;:&quot;entityRelationEdgeStyle&quot;,&quot;startArrow&quot;:&quot;none&quot;,&quot;endArrow&quot;:&quot;none&quot;,&quot;segment&quot;:10,&quot;curved&quot;:1,&quot;sourcePerimeterSpacing&quot;:0,&quot;targetPerimeterSpacing&quot;:0};treeFolding=1;treeMoving=1;fontSize=20;fontStyle=1" parent="1" vertex="1">
                    <mxGeometry x="-50" y="640" width="200" height="90" as="geometry"/>
                </mxCell>
                <UserObject label="End users" treeRoot="1" id="tQxjDxkxA76HWwi6js65-25">
                    <mxCell style="whiteSpace=wrap;html=1;align=center;treeFolding=1;treeMoving=1;newEdgeStyle={&quot;edgeStyle&quot;:&quot;elbowEdgeStyle&quot;,&quot;startArrow&quot;:&quot;none&quot;,&quot;endArrow&quot;:&quot;none&quot;};fontSize=20;" parent="1" vertex="1">
                        <mxGeometry x="470" y="655" width="120" height="60" as="geometry"/>
                    </mxCell>
                </UserObject>
            </root>
        </mxGraphModel>
    </diagram>
    <diagram id="HRpa_ArCjl30NQtj2EoB" name="Page-4">
        <mxGraphModel dx="991" dy="832" grid="1" gridSize="10" guides="1" tooltips="1" connect="1" arrows="1" fold="1" page="1" pageScale="1" pageWidth="827" pageHeight="1169" math="0" shadow="0">
            <root>
                <object label="" Day1="" id="0">
                    <mxCell/>
                </object>
                <mxCell id="1" parent="0"/>
                <mxCell id="fcX4c_XkzucLLJkfy9Oj-7" style="edgeStyle=orthogonalEdgeStyle;curved=1;html=1;entryX=0;entryY=0;entryDx=0;entryDy=0;fontSize=20;endArrow=none;endFill=0;" parent="1" source="fcX4c_XkzucLLJkfy9Oj-1" target="fcX4c_XkzucLLJkfy9Oj-4" edge="1">
                    <mxGeometry relative="1" as="geometry"/>
                </mxCell>
                <mxCell id="fcX4c_XkzucLLJkfy9Oj-8" style="edgeStyle=orthogonalEdgeStyle;curved=1;html=1;fontSize=20;endArrow=none;endFill=0;" parent="1" source="fcX4c_XkzucLLJkfy9Oj-1" target="fcX4c_XkzucLLJkfy9Oj-2" edge="1">
                    <mxGeometry relative="1" as="geometry"/>
                </mxCell>
                <mxCell id="fcX4c_XkzucLLJkfy9Oj-9" style="edgeStyle=orthogonalEdgeStyle;curved=1;html=1;fontSize=20;endArrow=none;endFill=0;" parent="1" source="fcX4c_XkzucLLJkfy9Oj-1" target="fcX4c_XkzucLLJkfy9Oj-3" edge="1">
                    <mxGeometry relative="1" as="geometry"/>
                </mxCell>
                <mxCell id="fcX4c_XkzucLLJkfy9Oj-1" value="" style="ellipse;whiteSpace=wrap;html=1;fontSize=20;" parent="1" vertex="1">
                    <mxGeometry x="180" y="170" width="80" height="80" as="geometry"/>
                </mxCell>
                <mxCell id="fcX4c_XkzucLLJkfy9Oj-2" value="" style="ellipse;whiteSpace=wrap;html=1;fontSize=20;" parent="1" vertex="1">
                    <mxGeometry x="510" y="370" width="80" height="80" as="geometry"/>
                </mxCell>
                <mxCell id="fcX4c_XkzucLLJkfy9Oj-3" value="" style="ellipse;whiteSpace=wrap;html=1;fontSize=20;" parent="1" vertex="1">
                    <mxGeometry x="290" y="380" width="80" height="80" as="geometry"/>
                </mxCell>
                <mxCell id="fcX4c_XkzucLLJkfy9Oj-4" value="" style="ellipse;whiteSpace=wrap;html=1;fontSize=20;" parent="1" vertex="1">
                    <mxGeometry x="400" y="370" width="80" height="80" as="geometry"/>
                </mxCell>
                <mxCell id="fcX4c_XkzucLLJkfy9Oj-15" style="html=1;startArrow=none;endArrow=classic;entryX=0.925;entryY=0.263;entryDx=0;entryDy=0;entryPerimeter=0;fontSize=20;startFill=0;endFill=1;" parent="1" source="fcX4c_XkzucLLJkfy9Oj-10" target="fcX4c_XkzucLLJkfy9Oj-1" edge="1">
                    <mxGeometry relative="1" as="geometry"/>
                </mxCell>
                <UserObject label="Cloud Security" treeRoot="1" id="fcX4c_XkzucLLJkfy9Oj-10">
                    <mxCell style="whiteSpace=wrap;html=1;align=center;treeFolding=1;treeMoving=1;newEdgeStyle={&quot;edgeStyle&quot;:&quot;elbowEdgeStyle&quot;,&quot;startArrow&quot;:&quot;none&quot;,&quot;endArrow&quot;:&quot;none&quot;};fontSize=20;" parent="1" vertex="1">
                        <mxGeometry x="430" y="50" width="210" height="60" as="geometry"/>
                    </mxCell>
                </UserObject>
                <mxCell id="fcX4c_XkzucLLJkfy9Oj-12" value="Database" style="whiteSpace=wrap;html=1;fontSize=20;" parent="1" vertex="1">
                    <mxGeometry x="20" y="20" width="120" height="60" as="geometry"/>
                </mxCell>
                <mxCell id="fcX4c_XkzucLLJkfy9Oj-14" style="html=1;entryX=0;entryY=0.5;entryDx=0;entryDy=0;fontSize=20;endArrow=classic;endFill=1;" parent="1" source="fcX4c_XkzucLLJkfy9Oj-12" target="fcX4c_XkzucLLJkfy9Oj-10" edge="1">
                    <mxGeometry relative="1" as="geometry">
                        <mxPoint x="260" y="56.81818181818187" as="sourcePoint"/>
                    </mxGeometry>
                </mxCell>
                <mxCell id="bZPr55QLaEh3a-F2rFek-1" value="How Ehternet works?" style="text;strokeColor=none;align=center;fillColor=none;html=1;verticalAlign=middle;whiteSpace=wrap;rounded=0;fontSize=30;fontStyle=1" parent="1" vertex="1">
                    <mxGeometry x="140" y="585" width="460" height="30" as="geometry"/>
                </mxCell>
                <mxCell id="bZPr55QLaEh3a-F2rFek-9" style="edgeStyle=none;html=1;fontSize=30;startArrow=none;startFill=0;endArrow=none;endFill=0;" parent="1" source="bZPr55QLaEh3a-F2rFek-2" edge="1">
                    <mxGeometry relative="1" as="geometry">
                        <mxPoint x="220" y="950" as="targetPoint"/>
                    </mxGeometry>
                </mxCell>
                <mxCell id="bZPr55QLaEh3a-F2rFek-2" value="A" style="whiteSpace=wrap;html=1;fontSize=30;" parent="1" vertex="1">
                    <mxGeometry x="180" y="760" width="80" height="80" as="geometry"/>
                </mxCell>
                <mxCell id="bZPr55QLaEh3a-F2rFek-10" style="edgeStyle=none;html=1;fontSize=30;startArrow=none;startFill=0;endArrow=none;endFill=0;" parent="1" source="bZPr55QLaEh3a-F2rFek-3" edge="1">
                    <mxGeometry relative="1" as="geometry">
                        <mxPoint x="320" y="950" as="targetPoint"/>
                    </mxGeometry>
                </mxCell>
                <mxCell id="bZPr55QLaEh3a-F2rFek-3" value="B" style="whiteSpace=wrap;html=1;fontSize=30;" parent="1" vertex="1">
                    <mxGeometry x="280" y="760" width="80" height="80" as="geometry"/>
                </mxCell>
                <mxCell id="bZPr55QLaEh3a-F2rFek-11" style="edgeStyle=none;html=1;fontSize=30;startArrow=none;startFill=0;endArrow=none;endFill=0;" parent="1" source="bZPr55QLaEh3a-F2rFek-4" edge="1">
                    <mxGeometry relative="1" as="geometry">
                        <mxPoint x="430" y="950" as="targetPoint"/>
                    </mxGeometry>
                </mxCell>
                <mxCell id="bZPr55QLaEh3a-F2rFek-4" value="C" style="whiteSpace=wrap;html=1;fontSize=30;" parent="1" vertex="1">
                    <mxGeometry x="390" y="760" width="80" height="80" as="geometry"/>
                </mxCell>
                <mxCell id="bZPr55QLaEh3a-F2rFek-12" style="edgeStyle=none;html=1;fontSize=30;startArrow=none;startFill=0;endArrow=none;endFill=0;" parent="1" source="bZPr55QLaEh3a-F2rFek-5" edge="1">
                    <mxGeometry relative="1" as="geometry">
                        <mxPoint x="540" y="950" as="targetPoint"/>
                    </mxGeometry>
                </mxCell>
                <mxCell id="bZPr55QLaEh3a-F2rFek-5" value="D" style="whiteSpace=wrap;html=1;fontSize=30;" parent="1" vertex="1">
                    <mxGeometry x="500" y="760" width="80" height="80" as="geometry"/>
                </mxCell>
                <mxCell id="bZPr55QLaEh3a-F2rFek-13" style="edgeStyle=none;html=1;fontSize=30;startArrow=none;startFill=0;endArrow=none;endFill=0;" parent="1" source="bZPr55QLaEh3a-F2rFek-6" edge="1">
                    <mxGeometry relative="1" as="geometry">
                        <mxPoint x="650" y="950" as="targetPoint"/>
                    </mxGeometry>
                </mxCell>
                <mxCell id="bZPr55QLaEh3a-F2rFek-6" value="E" style="whiteSpace=wrap;html=1;fontSize=30;" parent="1" vertex="1">
                    <mxGeometry x="610" y="760" width="80" height="80" as="geometry"/>
                </mxCell>
                <mxCell id="bZPr55QLaEh3a-F2rFek-8" value="" style="edgeStyle=none;orthogonalLoop=1;jettySize=auto;html=1;fontSize=30;startArrow=none;startFill=0;endArrow=none;endFill=0;" parent="1" edge="1">
                    <mxGeometry width="80" relative="1" as="geometry">
                        <mxPoint x="160" y="950" as="sourcePoint"/>
                        <mxPoint x="680" y="950" as="targetPoint"/>
                        <Array as="points"/>
                    </mxGeometry>
                </mxCell>
                <mxCell id="hsVoQRgbjn7udEfzwHp_-1" value="" style="shape=singleArrow;direction=north;whiteSpace=wrap;html=1;fontSize=50;" parent="1" vertex="1">
                    <mxGeometry x="230" y="885" width="18" height="30" as="geometry"/>
                </mxCell>
                <mxCell id="hsVoQRgbjn7udEfzwHp_-2" value="" style="shape=singleArrow;direction=north;whiteSpace=wrap;html=1;fontSize=50;rotation=-180;" parent="1" vertex="1">
                    <mxGeometry x="190" y="880" width="20" height="33.33" as="geometry"/>
                </mxCell>
                <mxCell id="hsVoQRgbjn7udEfzwHp_-3" value="" style="shape=singleArrow;direction=north;whiteSpace=wrap;html=1;fontSize=50;" parent="1" vertex="1">
                    <mxGeometry x="290" y="880" width="24" height="40" as="geometry"/>
                </mxCell>
                <mxCell id="hsVoQRgbjn7udEfzwHp_-4" value="" style="shape=singleArrow;direction=north;whiteSpace=wrap;html=1;fontSize=50;rotation=-180;" parent="1" vertex="1">
                    <mxGeometry x="320" y="900" width="20" height="33.33" as="geometry"/>
                </mxCell>
                <mxCell id="hsVoQRgbjn7udEfzwHp_-6" value="&lt;font style=&quot;font-size: 18px;&quot;&gt;-5V&lt;/font&gt;" style="text;strokeColor=none;align=center;fillColor=none;html=1;verticalAlign=middle;whiteSpace=wrap;rounded=0;fontSize=50;" parent="1" vertex="1">
                    <mxGeometry x="140" y="913.33" width="60" height="30" as="geometry"/>
                </mxCell>
                <mxCell id="hsVoQRgbjn7udEfzwHp_-7" value="&lt;font style=&quot;font-size: 18px;&quot;&gt;+5V&lt;/font&gt;" style="text;strokeColor=none;align=center;fillColor=none;html=1;verticalAlign=middle;whiteSpace=wrap;rounded=0;fontSize=50;" parent="1" vertex="1">
                    <mxGeometry x="254" y="913.33" width="60" height="30" as="geometry"/>
                </mxCell>
                <mxCell id="hsVoQRgbjn7udEfzwHp_-9" value="CRC" style="whiteSpace=wrap;html=1;fontSize=18;fontStyle=1" parent="1" vertex="1">
                    <mxGeometry x="190" y="1371" width="60" height="60" as="geometry"/>
                </mxCell>
                <mxCell id="hsVoQRgbjn7udEfzwHp_-10" value="Data" style="whiteSpace=wrap;html=1;fontSize=18;fontStyle=1" parent="1" vertex="1">
                    <mxGeometry x="250" y="1371" width="160" height="60" as="geometry"/>
                </mxCell>
                <mxCell id="hsVoQRgbjn7udEfzwHp_-16" style="edgeStyle=orthogonalEdgeStyle;html=1;fontSize=18;startArrow=none;startFill=0;endArrow=none;endFill=0;" parent="1" source="hsVoQRgbjn7udEfzwHp_-12" edge="1">
                    <mxGeometry relative="1" as="geometry">
                        <mxPoint x="425.0000000000001" y="1481" as="targetPoint"/>
                    </mxGeometry>
                </mxCell>
                <mxCell id="hsVoQRgbjn7udEfzwHp_-12" value="" style="whiteSpace=wrap;html=1;fontSize=18;" parent="1" vertex="1">
                    <mxGeometry x="410" y="1371" width="30" height="60" as="geometry"/>
                </mxCell>
                <mxCell id="hsVoQRgbjn7udEfzwHp_-13" value="DST" style="whiteSpace=wrap;html=1;fontSize=18;fontStyle=1" parent="1" vertex="1">
                    <mxGeometry x="510" y="1371" width="60" height="60" as="geometry"/>
                </mxCell>
                <mxCell id="hsVoQRgbjn7udEfzwHp_-14" value="SRC" style="whiteSpace=wrap;html=1;fontSize=18;fontStyle=1" parent="1" vertex="1">
                    <mxGeometry x="440" y="1371" width="70" height="60" as="geometry"/>
                </mxCell>
                <mxCell id="hsVoQRgbjn7udEfzwHp_-17" value="Options" style="text;strokeColor=none;align=center;fillColor=none;html=1;verticalAlign=middle;whiteSpace=wrap;rounded=0;fontSize=18;fontStyle=1" parent="1" vertex="1">
                    <mxGeometry x="395" y="1481" width="60" height="30" as="geometry"/>
                </mxCell>
                <mxCell id="hsVoQRgbjn7udEfzwHp_-18" value="Tells what kind of data is carrying" style="text;strokeColor=none;align=center;fillColor=none;html=1;verticalAlign=middle;whiteSpace=wrap;rounded=0;fontSize=9;" parent="1" vertex="1">
                    <mxGeometry x="380.5" y="1511" width="89" height="30" as="geometry"/>
                </mxCell>
                <mxCell id="hsVoQRgbjn7udEfzwHp_-20" value="Data" style="whiteSpace=wrap;html=1;fontSize=30;fontStyle=1" parent="1" vertex="1">
                    <mxGeometry x="110" y="1611" width="230" height="60" as="geometry"/>
                </mxCell>
                <mxCell id="hsVoQRgbjn7udEfzwHp_-21" value="CRC" style="whiteSpace=wrap;html=1;fontSize=18;fontStyle=1" parent="1" vertex="1">
                    <mxGeometry x="50" y="1611" width="60" height="60" as="geometry"/>
                </mxCell>
                <mxCell id="hsVoQRgbjn7udEfzwHp_-22" value="Data" style="whiteSpace=wrap;html=1;fontSize=30;fontStyle=1" parent="1" vertex="1">
                    <mxGeometry x="540" y="1611" width="230" height="60" as="geometry"/>
                </mxCell>
                <mxCell id="hsVoQRgbjn7udEfzwHp_-23" value="CRC" style="whiteSpace=wrap;html=1;fontSize=18;fontStyle=1" parent="1" vertex="1">
                    <mxGeometry x="480" y="1611" width="60" height="60" as="geometry"/>
                </mxCell>
                <mxCell id="hsVoQRgbjn7udEfzwHp_-26" style="edgeStyle=orthogonalEdgeStyle;html=1;fontSize=30;startArrow=none;startFill=0;endArrow=classic;endFill=1;horizontal=1;" parent="1" source="hsVoQRgbjn7udEfzwHp_-24" target="hsVoQRgbjn7udEfzwHp_-25" edge="1">
                    <mxGeometry relative="1" as="geometry"/>
                </mxCell>
                <mxCell id="hsVoQRgbjn7udEfzwHp_-24" value="A" style="text;strokeColor=none;align=center;fillColor=none;html=1;verticalAlign=middle;whiteSpace=wrap;rounded=0;fontSize=18;fontStyle=1" parent="1" vertex="1">
                    <mxGeometry x="140" y="1571" width="60" height="30" as="geometry"/>
                </mxCell>
                <mxCell id="hsVoQRgbjn7udEfzwHp_-25" value="B" style="text;strokeColor=none;align=center;fillColor=none;html=1;verticalAlign=middle;whiteSpace=wrap;rounded=0;fontSize=18;fontStyle=1" parent="1" vertex="1">
                    <mxGeometry x="620" y="1571" width="60" height="30" as="geometry"/>
                </mxCell>
                <mxCell id="hsVoQRgbjn7udEfzwHp_-27" value="A CRC is going to be mismatch if there is going to be some happering during the transmission of data." style="text;strokeColor=none;align=center;fillColor=none;html=1;verticalAlign=middle;whiteSpace=wrap;rounded=0;fontSize=9;" parent="1" vertex="1">
                    <mxGeometry x="290" y="1701" width="220" height="30" as="geometry"/>
                </mxCell>
                <mxCell id="hsVoQRgbjn7udEfzwHp_-28" value="1518 bytes" style="text;strokeColor=none;align=center;fillColor=none;html=1;verticalAlign=middle;whiteSpace=wrap;rounded=0;fontSize=18;fontStyle=1" parent="1" vertex="1">
                    <mxGeometry x="280" y="1331" width="140" height="30" as="geometry"/>
                </mxCell>
                <mxCell id="hsVoQRgbjn7udEfzwHp_-29" value="What a Frame looks like?" style="text;strokeColor=none;align=center;fillColor=none;html=1;verticalAlign=middle;whiteSpace=wrap;rounded=0;fontSize=30;fontStyle=1" parent="1" vertex="1">
                    <mxGeometry x="210" y="1270" width="400" height="30" as="geometry"/>
                </mxCell>
            </root>
        </mxGraphModel>
    </diagram>
    <diagram id="YRQ3Nx3eJP_hH5N8rkNw" name="Page-5">
        <mxGraphModel dx="644" dy="541" grid="1" gridSize="10" guides="1" tooltips="1" connect="1" arrows="1" fold="1" page="1" pageScale="1" pageWidth="827" pageHeight="1169" math="0" shadow="0">
            <root>
                <mxCell id="0"/>
                <mxCell id="1" parent="0"/>
                <mxCell id="xs9pPtlp6ZpJsW4MBnL4-1" value="CSMA/CD" style="text;strokeColor=none;align=center;fillColor=none;html=1;verticalAlign=middle;whiteSpace=wrap;rounded=0;fontSize=50;fontStyle=1" parent="1" vertex="1">
                    <mxGeometry x="289" y="60" width="250" height="80" as="geometry"/>
                </mxCell>
            </root>
        </mxGraphModel>
    </diagram>
</mxfile>